<svg xmlns="http://www.w3.org/2000/svg" style="display: none;" xmlns:xlink="http://www.w3.org/1999/xlink">
  <symbol id="icon-add" viewBox="0 0 24 24">
    <path fill="none" stroke="currentColor" stroke-linecap="round" stroke-linejoin="round" stroke-width="1.5" d="M12 4v16m8-8H4" color="currentColor"/>
  </symbol>
  <symbol id="icon-alert" viewBox="0 0 24 24">
    <g fill="none" stroke="currentColor" stroke-linecap="round" stroke-linejoin="round" stroke-width="1.5" color="currentColor">
      <circle cx="12" cy="12" r="10"/>
      <path d="M11.992 15h.009M12 12V8"/>
    </g>
  </symbol>
  <symbol id="icon-arrow-left-line" viewBox="0 0 24 24">
    <path fill="none" stroke="currentColor" stroke-linecap="round" stroke-linejoin="round" stroke-width="1.5" d="M4 6v12m4-6h12m-8-4s-4 2.946-4 4 4 4 4 4" color="currentColor"/>
  </symbol  >
  <symbol id="icon-arrow-left" viewBox="0 0 24 24">
    <path fill="none" stroke="currentColor" stroke-linecap="round" stroke-linejoin="round" stroke-width="1.5" d="M4 12h16M9 17s-5-3.682-5-5 5-5 5-5" color="currentColor"/>
  </symbol>
  <symbol id="icon-arrow-right" viewBox="0 0 24 24">
    <path fill="none" stroke="currentColor" stroke-linecap="round" stroke-linejoin="round" stroke-width="1.5" d="M20 12H4m11 5s5-3.682 5-5-5-5-5-5" color="currentColor"/>
  </symbol>
  <symbol id="icon-books" viewBox="0 0 24 24">
    <g fill="none" stroke="currentColor" stroke-linecap="round" stroke-linejoin="round" stroke-width="1.5" color="currentColor">
      <path d="M2 15h13c.932 0 1.398 0 1.765.152a2 2 0 0 1 1.083 1.083C18 16.602 18 17.068 18 18s0 1.398-.152 1.765a2 2 0 0 1-1.083 1.083C16.398 21 15.932 21 15 21H2M2 3h13c.932 0 1.398 0 1.765.152a2 2 0 0 1 1.083 1.083C18 4.602 18 5.068 18 6s0 1.398-.152 1.765a2 2 0 0 1-1.083 1.083C16.398 9 15.932 9 15 9H2m20 0H9c-.932 0-1.398 0-1.765.152a2 2 0 0 0-1.083 1.083C6 10.602 6 11.068 6 12s0 1.398.152 1.765a2 2 0 0 0 1.083 1.083C7.602 15 8.068 15 9 15h13"/>
      <path d="M21 15c-1.105 0-2-1.343-2-3s.895-3 2-3M3 3c1.105 0 2 1.343 2 3s-.895 3-2 3m0 6c1.105 0 2 1.343 2 3s-.895 3-2 3"/>
    </g>
  </symbol>
  <symbol id="icon-calendar" viewBox="0 0 24 24">
    <path fill="none" stroke="currentColor" stroke-linecap="round" stroke-linejoin="round" stroke-width="1.5" d="M18 2v2M6 2v2m5.996 9h.008m-.008 4h.008m3.987-4H16m-8 0h.009M8 17h.009M3.5 8h17m-18 4.243c0-4.357 0-6.536 1.252-7.89C5.004 3 7.02 3 11.05 3h1.9c4.03 0 6.046 0 7.298 1.354C21.5 5.707 21.5 7.886 21.5 12.244v.513c0 4.357 0 6.536-1.252 7.89C18.996 22 16.98 22 12.95 22h-1.9c-4.03 0-6.046 0-7.298-1.354C2.5 19.293 2.5 17.114 2.5 12.756zM3 8h18" color="currentColor"/>
  </symbol>
  <symbol id="icon-chevron-down" viewBox="0 0 24 24">
    <path fill="none" stroke="currentColor" stroke-linecap="round" stroke-linejoin="round" stroke-width="1.5" d="M18 9s-4.419 6-6 6-6-6-6-6" color="currentColor"/>
  </symbol>
  <symbol id="icon-close" viewBox="0 0 24 24">
    <path fill="none" stroke="currentColor" stroke-linecap="round" stroke-linejoin="round" stroke-width="1.5" d="M10.247 6.74c.826.827 1.24 1.24 1.753 1.24.514 0 .927-.413 1.753-1.24h0l1.754-1.753h0c.407-.408.611-.612.823-.734 1.066-.616 1.945-.005 2.683.734.739.738 1.35 1.617.734 2.683-.122.212-.326.416-.734.823l-1.753 1.754c-.827.826-1.24 1.24-1.24 1.753 0 .514.413.927 1.24 1.753l1.753 1.754c.408.407.612.611.734.823.616 1.066.005 1.945-.734 2.683-.738.739-1.617 1.35-2.683.734-.212-.122-.416-.326-.823-.734l-1.754-1.753h0c-.826-.826-1.24-1.24-1.753-1.24-.514 0-.927.414-1.753 1.24h0l-1.754 1.753c-.407.408-.611.612-.823.734-1.066.616-1.945.005-2.683-.734-.739-.738-1.35-1.617-.734-2.683.122-.212.326-.416.734-.823l1.753-1.754c.827-.826 1.24-1.24 1.24-1.753 0-.514-.414-.927-1.24-1.753L4.987 8.493c-.408-.407-.612-.611-.734-.823-.616-1.066-.005-1.945.734-2.683.738-.739 1.617-1.35 2.683-.734.212.122.416.326.823.734h0z" color="currentColor"/>
  </symbol>
  <symbol id="icon-database" viewBox="0 0 24 24">
    <g fill="none" stroke="currentColor" stroke-linecap="round" stroke-linejoin="round" stroke-width="1.5" color="currentColor">
    <ellipse cx="12" cy="5" rx="8" ry="3"/>
    <path d="M7 10.842c.602.18 1.274.33 2 .44M20 12c0 1.657-3.582 3-8 3s-8-1.343-8-3m3 5.842c.602.18 1.274.33 2 .44"/>
    <path d="M20 5v14c0 1.657-3.582 3-8 3s-8-1.343-8-3V5"/>
    </g>
  </symbol>
  <symbol id="icon-delete" viewBox="0 0 24 24">
    <path fill="none" stroke="currentColor" stroke-linecap="round" stroke-linejoin="round" stroke-width="1.5" d="m19.5 5.5-.62 10.025c-.158 2.561-.237 3.842-.88 4.763a4 4 0 0 1-1.2 1.128c-.957.584-2.24.584-4.806.584-2.57 0-3.855 0-4.814-.585a4 4 0 0 1-1.2-1.13c-.642-.922-.72-2.205-.874-4.77L4.5 5.5M3 5.5h18m-4.944 0-.683-1.408c-.453-.936-.68-1.403-1.071-1.695a2 2 0 0 0-.275-.172C13.594 2 13.074 2 12.035 2c-1.066 0-1.599 0-2.04.234a2 2 0 0 0-.278.18c-.395.303-.616.788-1.058 1.757L8.053 5.5m1.447 11v-6m5 6v-6" color="currentColor"/>
  </symbol>
  <symbol id="icon-download" viewBox="0 0 24 24">
    <g fill="none" stroke="currentColor" stroke-linecap="round" stroke-linejoin="round" stroke-width="1.5" color="currentColor">
      <path d="M12.5 2h.273c3.26 0 4.892 0 6.024.798.324.228.612.5.855.805.848 1.066.848 2.6.848 5.67v2.545c0 2.963 0 4.445-.469 5.628-.754 1.903-2.348 3.403-4.37 4.113-1.257.441-2.83.441-5.98.441-1.798 0-2.698 0-3.416-.252-1.155-.406-2.066-1.263-2.497-2.35-.268-.676-.268-1.523-.268-3.216V12"/>
      <path d="M20.5 12a3.333 3.333 0 0 1-3.333 3.333c-.666 0-1.451-.116-2.098.057a1.67 1.67 0 0 0-1.179 1.179c-.173.647-.057 1.432-.057 2.098A3.333 3.333 0 0 1 10.5 22m-6-14.5C4.992 8.006 6.3 10 7 10m2.5-2.5C9.008 8.006 7.7 10 7 10m0 0V2"/>
    </g>
  </symbol>
  <symbol id="icon-edit" viewBox="0 0 24 24">
    <path fill="none" stroke="currentColor" stroke-linecap="round" stroke-linejoin="round" stroke-width="1.5" d="M16.946 3.173c.587-.587.88-.88 1.206-1.021.469-.203 1-.203 1.469 0 .325.14.619.434 1.206 1.021s.88.881 1.021 1.206c.203.469.203 1 0 1.469-.14.325-.434.619-1.021 1.206l-5.022 5.022c-1.237 1.237-1.855 1.855-2.63 2.222s-1.646.452-3.387.624L9 15l.078-.788c.172-1.741.257-2.612.624-3.387s.985-1.393 2.222-2.63zM6 15H3.75a1.75 1.75 0 1 0 0 3.5h9.5a1.75 1.75 0 1 1 0 3.5H11" color="currentColor"/>
  </symbol>
  <symbol id="icon-excel" viewBox="0 0 256 256">
    <path fill="currentColor" d="M200 24H72a16 16 0 0 0-16 16v24H40a16 16 0 0 0-16 16v96a16 16 0 0 0 16 16h16v24a16 16 0 0 0 16 16h128a16 16 0 0 0 16-16V40a16 16 0 0 0-16-16m-40 80h40v48h-40Zm40-16h-40v-8a16 16 0 0 0-16-16V40h56ZM72 40h56v24H72ZM40 80h104v96H40Zm32 112h56v24H72Zm72 24v-24a16 16 0 0 0 16-16v-8h40v48Zm-78.15-69.12L81.59 128l-15.74-18.88a8 8 0 0 1 12.3-10.24L92 115.5l13.85-16.62a8 8 0 1 1 12.3 10.24L102.41 128l15.74 18.88a8 8 0 0 1-12.3 10.24L92 140.5l-13.85 16.62a8 8 0 0 1-12.3-10.24"/>
  </symbol>
  <symbol id="icon-file-add" viewBox="0 0 24 24">
    <g fill="none" stroke="currentColor" stroke-linecap="round" stroke-linejoin="round" stroke-width="1.5" color="currentColor">
      <path d="M3.5 8.23V5.463C3.5 3.55 5.067 2 7 2s3.5 1.55 3.5 3.462v3.807A1.74 1.74 0 0 1 8.75 11 1.74 1.74 0 0 1 7 9.27V5.461"/>
      <path d="M12.5 2h.273c3.26 0 4.892 0 6.024.798.324.228.612.5.855.805.848 1.066.848 2.6.848 5.67v2.545c0 2.963 0 4.445-.469 5.628-.754 1.903-2.348 3.403-4.37 4.113-1.257.441-2.83.441-5.98.441-1.798 0-2.698 0-3.416-.252-1.155-.406-2.066-1.263-2.497-2.35-.268-.676-.268-1.523-.268-3.216V12"/>
      <path d="M20.5 12a3.333 3.333 0 0 1-3.333 3.333c-.666 0-1.451-.116-2.098.057a1.67 1.67 0 0 0-1.179 1.179c-.173.647-.057 1.432-.057 2.098A3.333 3.333 0 0 1 10.5 22"/>
    </g>
  </symbol>
  <symbol id="icon-files-folder" viewBox="0 0 24 24">
    <path fill="none" stroke="currentColor" stroke-linecap="round" stroke-linejoin="round" stroke-width="1.5" d="M7 6.5h9.75c2.107 0 3.16 0 3.917.506a3 3 0 0 1 .827.827c.464.694.503 1.427.506 3.167M12 6.5l-.633-1.267c-.525-1.05-1.005-2.106-2.168-2.542C8.69 2.5 8.108 2.5 6.944 2.5c-1.816 0-2.724 0-3.406.38A3 3 0 0 0 2.38 4.038C2 4.72 2 5.628 2 7.444V10.5c0 4.714 0 7.071 1.464 8.535 1.3 1.3 3.304 1.447 7.036 1.463h.5m6.556 1.002h.888c1.677 0 2.515 0 3.035-.527C22 20.446 22 19.597 22 17.9v-.309c0-.736 0-1.104-.135-1.434-.136-.331-.393-.591-.906-1.111l-1.31-1.327c-.417-.421-.625-.632-.864-.788a2.7 2.7 0 0 0-.882-.37c-.278-.061-.573-.061-1.162-.061-.898 0-1.347 0-1.697.16-.393.18-.707.5-.885.897-.159.354-.159.809-.159 1.718V17.9c0 1.697 0 2.546.52 3.073.521.527 1.36.527 3.036.527" color="currentColor"/>
  </symbol>
  <symbol id="icon-filter-add" viewBox="0 0 24 24">
    <path fill="none" stroke="currentColor" stroke-linecap="round" stroke-linejoin="round" stroke-width="1.5" d="M20.67 7c.083-.182.127-.374.16-.627.202-1.572.303-2.358-.158-2.866C20.212 3 19.396 3 17.766 3H6.234c-1.63 0-2.445 0-2.906.507-.461.508-.36 1.294-.158 2.866.06.459.158.72.457 1.076.969 1.15 2.742 3.197 5.23 5.057.228.17.377.448.402.755.28 3.425.537 5.765.674 6.917.071.604.741 1.069 1.293.678.927-.655 2.66-1.39 2.888-2.612.108-.577.267-1.585.445-3.244M17.5 8v7m3.5-3.5h-7" color="currentColor"/>
  </symbol>
  <symbol id="icon-filter-remove" viewBox="0 0 24 24">
    <path fill="none" stroke="currentColor" stroke-linecap="round" stroke-linejoin="round" stroke-width="1.5" d="M20.999 4.5c-.012-.435-.103-.747-.327-.993C20.212 3 19.396 3 17.766 3H6.234c-1.63 0-2.445 0-2.906.507-.461.508-.36 1.294-.158 2.866.06.459.158.72.457 1.076.969 1.15 2.742 3.197 5.23 5.057.228.17.377.448.402.755.28 3.425.537 5.765.674 6.917.071.604.741 1.069 1.293.678.927-.655 2.66-1.39 2.888-2.612.085-.45.2-1.164.331-2.244M21 7l-6 6m6 0-6-6" color="currentColor"/>
  </symbol>
  <symbol id="icon-filter" viewBox="0 0 24 24">
    <path fill="none" stroke="currentColor" stroke-linecap="round" stroke-linejoin="round" stroke-width="1.5" d="M3 7h3M3 17h6m9 0h3M15 7h6M6 7c0-.932 0-1.398.152-1.765a2 2 0 0 1 1.083-1.083C7.602 4 8.068 4 9 4s1.398 0 1.765.152a2 2 0 0 1 1.083 1.083C12 5.602 12 6.068 12 7s0 1.398-.152 1.765a2 2 0 0 1-1.083 1.083C10.398 10 9.932 10 9 10s-1.398 0-1.765-.152a2 2 0 0 1-1.083-1.083C6 8.398 6 7.932 6 7m6 10c0-.932 0-1.398.152-1.765a2 2 0 0 1 1.083-1.083C13.602 14 14.068 14 15 14s1.398 0 1.765.152a2 2 0 0 1 1.083 1.083C18 15.602 18 16.068 18 17s0 1.398-.152 1.765a2 2 0 0 1-1.083 1.083C16.398 20 15.932 20 15 20s-1.398 0-1.765-.152a2 2 0 0 1-1.083-1.083C12 18.398 12 17.932 12 17" color="currentColor"/>
  </symbol>
  <symbol id="icon-home" viewBox="0 0 24 24">
    <g fill="none" stroke="currentColor" stroke-linecap="round" stroke-linejoin="round" stroke-width="1.5" color="currentColor">
      <path d="m7 9 4.77-4.265C13.066 3.578 13.713 3 14.5 3s1.435.578 2.73 1.735L22 9M8.5 8v12m12 0V8"/>
      <ellipse cx="3.5" cy="12" rx="1.5" ry="2"/>
      <path d="M3.5 14v6M2 20h20m-10 0v-4c0-.943 0-1.414.293-1.707S13.057 14 14 14h1c.943 0 1.414 0 1.707.293S17 15.057 17 16v4m-3.5-9h2m-2-3h2"/>
    </g>
  </symbol>
  <symbol id="icon-img-off" viewBox="0 0 24 24">
    <g fill="none" stroke="currentColor" stroke-linecap="round" stroke-linejoin="round" stroke-width="1.5" color="currentColor">
      <circle cx="16.5" cy="7.5" r="1.5"/>
      <path d="M2 14.135q1.001-.135 2.016-.132c2.856-.056 5.642.77 7.86 2.331 2.06 1.448 3.505 3.44 4.124 5.666m-2.5-4.5c1-1 1.677-1.223 2.5-1.5"/>
      <path d="M20 20.213C18.601 21.5 16.363 21.5 12 21.5c-4.478 0-6.718 0-8.109-1.391S2.5 16.479 2.5 12c0-4.363 0-6.601 1.287-8M20 16c.543 0 1.048.294 1.397.564.103-1.195.103-2.681.103-4.564 0-4.478 0-6.718-1.391-8.109S16.479 2.5 12 2.5c-2.41 0-4.17 0-5.5.217M2 2l20 20"/>
    </g>
  </symbol>
  <symbol id="icon-img" viewBox="0 0 24 24">
    <g fill="none" stroke="currentColor" stroke-linecap="round" stroke-linejoin="round" stroke-width="1.5" color="currentColor">
      <path d="M2.5 12c0-4.478 0-6.718 1.391-8.109S7.521 2.5 12 2.5c4.478 0 6.718 0 8.109 1.391S21.5 7.521 21.5 12c0 4.478 0 6.718-1.391 8.109S16.479 21.5 12 21.5c-4.478 0-6.718 0-8.109-1.391S2.5 16.479 2.5 12"/>
      <circle cx="16.5" cy="7.5" r="1.5"/>
      <path d="M16 22c-.62-2.225-2.065-4.218-4.123-5.666-2.22-1.561-5.005-2.387-7.861-2.331q-.51-.001-1.016.032"/>
      <path d="M13 18c1.701-1.327 3.535-2.007 5.386-2a7.8 7.8 0 0 1 3.114.662"/>
    </g>
  </symbol>
  <symbol id="icon-key" viewBox="0 0 16 16">
    <path d="M11 6a1 1 0 1 0 0-2 1 1 0 0 0 0 2"/>
    <path d="M7.5 12v-.5h1A.5.5 0 0 0 9 11v-1h1a4 4 0 1 0-3.838-2.87L2.292 11a1 1 0 0 0-.292.707V13a1 1 0 0 0 1 1h2a1 1 0 0 0 1-1v-.5h1a.5.5 0 0 0 .5-.5M7 6a3 3 0 1 1 3 3H8.5a.5.5 0 0 0-.5.5v1H7a.5.5 0 0 0-.5.5v.5h-1a.5.5 0 0 0-.5.5v1H3v-1.293l4.089-4.089a.5.5 0 0 0 .113-.534C7.072 6.748 7 6.384 7 6"/>
  </symbol>
  <symbol id="icon-link" viewBox="0 0 24 24">
    <g fill="none" stroke="currentColor" stroke-linecap="round" stroke-linejoin="round" stroke-width="1.5" color="currentColor">
      <path d="m12.143 10.691.207-.207a5.067 5.067 0 1 1 7.166 7.166l-2.866 2.866a5.067 5.067 0 1 1-7.166-7.166l.464-.464"/>
      <path d="m20.052 11.114.464-.464a5.067 5.067 0 1 0-7.166-7.166L10.484 6.35a5.067 5.067 0 1 0 7.166 7.166l.207-.207M4.5 4 6 6M2 8l3 1m-2 4.5L5 12"/>
    </g>
  </symbol>
  <symbol id="icon-login" viewBox="0 0 24 24">
    <path fill="none" stroke="currentColor" stroke-linecap="round" stroke-linejoin="round" stroke-width="1.5" d="m10 3-.663.234c-2.578.91-3.868 1.365-4.602 2.403S4 8.043 4 10.777v2.445c0 2.735 0 4.102.735 5.14.734 1.039 2.024 1.494 4.602 2.404L10 21m0-9h10m-10 0c0-.7 1.994-2.008 2.5-2.5M10 12c0 .7 1.994 2.008 2.5 2.5" color="currentColor"/>
  </symbol>
  <symbol id="icon-logo-be" fill="none">
    <path fill="#03ACEF" stroke="#03ACEF" d="M23.312 12.79H11.426L1.5 24.506 11.426 36h12.14l19.978-23.432h5.817L42.469 1h-5.88L14.905 26.286l-1.581-1.854z"/>
    <path fill="#03ACEF" d="M51.953 12.568 45.125 1.074h2.845l6.765 11.494zM58.402 12.568h-1.201L50.436 1.074h1.138zM61.5 12.568h-.696L53.976 1.074h.759z"/>
    <path stroke="#03ACEF" d="M51.953 12.568 45.125 1.074h2.845l6.765 11.494zM58.402 12.568h-1.201L50.436 1.074h1.138zM61.5 12.568h-.696L53.976 1.074h.759z"/>
  </symbol>
  <symbol id="icon-logout" viewBox="0 0 24 24">
    <path fill="none" stroke="currentColor" stroke-linecap="round" stroke-linejoin="round" stroke-width="1.5" d="m11 3-.663.234c-2.578.91-3.868 1.365-4.602 2.403S5 8.043 5 10.777v2.445c0 2.735 0 4.102.735 5.14.734 1.039 2.024 1.494 4.602 2.404L11 21m10-9H11m10 0c0-.7-1.994-2.008-2.5-2.5M21 12c0 .7-1.994 2.008-2.5 2.5" color="currentColor"/>
  </symbol>
  <symbol id="icon-note-done" viewBox="0 0 24 24">
    <path fill="none" stroke="currentColor" stroke-linecap="round" stroke-linejoin="round" stroke-width="1.5" d="M19.5 13v-3c0-3.3 0-4.95-1.025-5.975S15.8 3 12.5 3h-3C6.2 3 4.55 3 3.525 4.025S2.5 6.7 2.5 10v5c0 3.3 0 4.95 1.025 5.975S6.2 22 9.5 22H11m5-20v2m-5-2v2M6 2v2m7.5 16s1 0 2 2c0 0 3.177-5 6-6M7 15h4m-4-5h8" color="currentColor"/>
  </symbol>
  <symbol id="icon-note" viewBox="0 0 24 24">
    <path fill="none" stroke="currentColor" stroke-linecap="round" stroke-linejoin="round" stroke-width="1.5" d="M9 14.5h4m-4-5h8M4 10c0-3.771 0-5.657 1.172-6.828S8.229 2 12 2h1.5c3.771 0 5.657 0 6.828 1.172S21.5 6.229 21.5 10v4c0 3.771 0 5.657-1.172 6.828S17.271 22 13.5 22H12c-3.771 0-5.657 0-6.828-1.172S4 17.771 4 14zm1-4H2.5M5 12H2.5M5 18H2.5" color="currentColor"/>
  </symbol>
  <symbol id="icon-notebook" viewBox="0 0 24 24">
    <path fill="none" stroke="currentColor" stroke-linecap="round" stroke-linejoin="round" stroke-width="1.5" d="M9 14.5h4m-4-5h8M4 10c0-3.771 0-5.657 1.172-6.828S8.229 2 12 2h1.5c3.771 0 5.657 0 6.828 1.172S21.5 6.229 21.5 10v4c0 3.771 0 5.657-1.172 6.828S17.271 22 13.5 22H12c-3.771 0-5.657 0-6.828-1.172S4 17.771 4 14zm1-4H2.5M5 12H2.5M5 18H2.5" color="currentColor"/>
  </symbol>
  <symbol id="icon-profile" viewBox="0 0 24 24">
    <g fill="none" stroke="currentColor" stroke-linecap="round" stroke-linejoin="round" stroke-width="1.5" color="currentColor">
      <path d="M14 9h4m-4 3.5h3"/>
      <rect width="20" height="18" x="2" y="3" rx="5"/>
      <path d="M5 16c1.208-2.581 5.712-2.75 7 0m-1.5-7a2 2 0 1 1-4 0 2 2 0 0 1 4 0"/>
    </g>
  </symbol>
  <symbol id="icon-search" viewBox="0 0 24 24">
    <path fill="none" stroke="currentColor" stroke-linecap="round" stroke-linejoin="round" stroke-width="1.5" d="M17.5 17.5 22 22m-2-11a9 9 0 1 0-18 0 9 9 0 0 0 18 0" color="currentColor"/>
  </symbol>
  <symbol id="icon-setting" viewBox="0 0 24 24">
    <g fill="none" stroke="currentColor" stroke-linecap="round" stroke-linejoin="round" stroke-width="1.5" color="currentColor">
      <path d="m21.318 7.141-.494-.856c-.373-.648-.56-.972-.878-1.101-.317-.13-.676-.027-1.395.176l-1.22.344c-.459.106-.94.046-1.358-.17l-.337-.194a2 2 0 0 1-.788-.967l-.334-.998c-.22-.66-.33-.99-.591-1.178-.261-.19-.609-.19-1.303-.19h-1.115c-.694 0-1.041 0-1.303.19-.261.188-.37.518-.59 1.178l-.334.998a2 2 0 0 1-.789.967l-.337.195c-.418.215-.9.275-1.358.17l-1.22-.345c-.719-.203-1.078-.305-1.395-.176-.318.129-.505.453-.878 1.1l-.493.857c-.35.608-.525.911-.491 1.234.034.324.268.584.736 1.105l1.031 1.153c.252.319.431.875.431 1.375s-.179 1.056-.43 1.375l-1.032 1.152c-.468.521-.702.782-.736 1.105s.14.627.49 1.234l.494.857c.373.647.56.971.878 1.1s.676.028 1.395-.176l1.22-.344a2 2 0 0 1 1.359.17l.336.194c.36.23.636.57.788.968l.334.997c.22.66.33.99.591 1.18.262.188.609.188 1.303.188h1.115c.694 0 1.042 0 1.303-.189s.371-.519.59-1.179l.335-.997c.152-.399.428-.738.788-.968l.336-.194c.42-.215.9-.276 1.36-.17l1.22.344c.718.204 1.077.306 1.394.177.318-.13.505-.454.878-1.101l.493-.857c.35-.607.525-.91.491-1.234s-.268-.584-.736-1.105l-1.031-1.152c-.252-.32-.431-.875-.431-1.375s.179-1.056.43-1.375l1.032-1.153c.468-.52.702-.781.736-1.105s-.14-.626-.49-1.234"/>
      <path d="M15.52 12a3.5 3.5 0 1 1-7 0 3.5 3.5 0 0 1 7 0"/>
    </g>
  </symbol>
  <symbol id="icon-sort-asc" viewBox="0 0 24 24">
    <path fill="none" stroke="currentColor" stroke-linecap="round" stroke-linejoin="round" stroke-width="1.5" d="M3 15h11M3 9h7M3 21h16m-.5-18v12m0-12c-.7 0-2.009 1.994-2.5 2.5M18.5 3c.7 0 2.009 1.994 2.5 2.5" color="currentColor"/>
  </symbol>
  <symbol id="icon-sort-desc" viewBox="0 0 24 24">
    <path fill="none" stroke="currentColor" stroke-linecap="round" stroke-linejoin="round" stroke-width="1.5" d="M3 9h11M3 15h7M3 3h16m-.5 18V9m0 12c-.7 0-2.009-1.994-2.5-2.5m2.5 2.5c.7 0 2.009-1.994 2.5-2.5" color="currentColor"/>
  </symbol>
  <symbol id="icon-upload" viewBox="0 0 24 24">
    <g fill="none" stroke="currentColor" stroke-linecap="round" stroke-linejoin="round" stroke-width="1.5" color="currentColor">
      <path d="M12.5 2h.273c3.26 0 4.892 0 6.024.798.324.228.612.5.855.805.848 1.066.848 2.6.848 5.67v2.545c0 2.963 0 4.445-.469 5.628-.754 1.903-2.348 3.403-4.37 4.113-1.257.441-2.83.441-5.98.441-1.798 0-2.698 0-3.416-.252-1.155-.406-2.066-1.263-2.497-2.35-.268-.676-.268-1.523-.268-3.216V12"/>
      <path d="M20.5 12a3.333 3.333 0 0 1-3.333 3.333c-.666 0-1.451-.116-2.098.057a1.67 1.67 0 0 0-1.179 1.179c-.173.647-.057 1.432-.057 2.098A3.333 3.333 0 0 1 10.5 22m-6-17.5C4.992 3.994 6.3 2 7 2m2.5 2.5C9.008 3.994 7.7 2 7 2m0 0v8"/>
    </g>
  </symbol>
  <symbol id="icon-user" viewBox="0 0 24 24">
    <g fill="none" stroke="currentColor" stroke-linecap="round" stroke-linejoin="round" stroke-width="1.5" color="currentColor">
      <path d="M7.783 17.111c-1.1.632-3.986 1.922-2.229 3.536C6.413 21.436 7.37 22 8.571 22h6.858c1.202 0 2.158-.564 3.017-1.353 1.757-1.614-1.128-2.904-2.229-3.536-2.58-1.481-5.854-1.481-8.434 0M15.5 10a3.5 3.5 0 1 1-7 0 3.5 3.5 0 0 1 7 0"/>
      <path d="M2.854 16A9.9 9.9 0 0 1 2 11.965C2 6.46 6.477 2 12 2s10 4.461 10 9.965A9.9 9.9 0 0 1 21.146 16"/>
    </g>
  </symbol>
  <symbol id="icon-users" viewBox="0 0 24 24">
    <path fill="none" stroke="currentColor" stroke-linecap="round" stroke-linejoin="round" stroke-width="1.5" d="M20.774 18c.75 0 1.345-.471 1.88-1.13 1.096-1.35-.703-2.43-1.389-2.957-.697-.537-1.476-.842-2.265-.913m-1-2a2.5 2.5 0 0 0 0-5M3.226 18c-.75 0-1.345-.471-1.88-1.13-1.096-1.35.703-2.43 1.389-2.957C3.432 13.376 4.21 13.07 5 13m.5-2a2.5 2.5 0 0 1 0-5m2.584 9.111c-1.022.632-3.701 1.922-2.07 3.536C6.813 19.436 7.7 20 8.817 20h6.368c1.117 0 2.004-.564 2.801-1.353 1.632-1.614-1.047-2.904-2.069-3.536a7.46 7.46 0 0 0-7.832 0M15.5 7.5a3.5 3.5 0 1 1-7 0 3.5 3.5 0 0 1 7 0" color="currentColor"/>
  </symbol>
  <symbol id="icon-view" viewBox="0 0 24 24">
    <path fill="none" stroke="currentColor" stroke-linecap="round" stroke-linejoin="round" stroke-width="1.5" d="M3 11c0-3.75 0-5.625.955-6.939A5 5 0 0 1 5.06 2.955C6.375 2 8.251 2 12 2s5.625 0 6.939.955a5 5 0 0 1 1.106 1.106C21 5.375 21 7.251 21 11v2c0 3.75 0 5.625-.955 6.939a5 5 0 0 1-1.106 1.106C17.625 22 15.749 22 12 22s-5.625 0-6.939-.955a5 5 0 0 1-1.106-1.106C3 18.625 3 16.749 3 13zm14-1.5H9m8 5h-3" color="currentColor"/>
  </symbol>
  <symbol id="icon-user-switch" viewBox="0 0 24 24">
    <path fill="none" stroke="currentColor" stroke-linecap="round" stroke-linejoin="round" stroke-width="1.5" d="M3.789 9.037c-.708.383-2.562 1.165-1.433 2.143c.552.478 1.167.82 1.94.82h4.409c.772 0 1.387-.342 1.939-.82c1.13-.978-.725-1.76-1.433-2.143c-1.659-.898-3.763-.898-5.422 0M8.75 4.273A2.26 2.26 0 0 1 6.5 6.545a2.26 2.26 0 0 1-2.25-2.272A2.26 2.26 0 0 1 6.5 2a2.26 2.26 0 0 1 2.25 2.273M4 15c0 3.317 2.683 6 6 6l-.857-1.714M20 9c0-3.317-2.683-6-6-6l.857 1.714m-.068 14.323c-.708.383-2.562 1.165-1.433 2.143c.552.478 1.167.82 1.94.82h4.409c.772 0 1.387-.342 1.939-.82c1.13-.978-.725-1.76-1.433-2.143c-1.659-.898-3.763-.898-5.422 0m4.961-4.764a2.26 2.26 0 0 1-2.25 2.273a2.26 2.26 0 0 1-2.25-2.273A2.26 2.26 0 0 1 17.5 12a2.26 2.26 0 0 1 2.25 2.273" color="currentColor"/>
  </symbol>
  <symbol id="icon-pie-chart" viewBox="0 0 24 24">
    <g fill="none" stroke="currentColor" stroke-linecap="round" stroke-linejoin="round" stroke-width="1.5" color="currentColor">
      <path d="M20.5 15.828c-2.501 5.928-10.636 7.656-15.299 3.036C.63 14.334 2.045 6.13 8.057 3.5"></path>
      <path d="M17.683 12.5c1.888 0 2.832 0 3.441-.845c.023-.032.06-.088.081-.121c.548-.887.266-1.568-.299-2.93a10.18 10.18 0 0 0-5.51-5.51c-1.362-.565-2.043-.847-2.93-.3c-.033.021-.09.06-.121.082c-.845.61-.845 1.553-.845 3.44v2.111c0 1.92 0 2.88.596 3.477c.597.596 1.557.596 3.476.596z"></path>
    </g>
  </symbol>
  <symbol id="icon-signal" viewBox="0 0 32 32">
    <path fill="currentColor" d="M15 12h2v18h-2zm-3.67 6.22a7 7 0 0 1 0-10.44l1.34 1.49a5 5 0 0 0 0 7.46zm9.34 0l-1.34-1.49a5 5 0 0 0 0-7.46l1.34-1.49a7 7 0 0 1 0 10.44"/>
    <path fill="currentColor" d="M8.4 21.8a11 11 0 0 1 0-17.6l1.2 1.6a9 9 0 0 0 0 14.4zm15.2 0l-1.2-1.6a9 9 0 0 0 0-14.4l1.2-1.6a11 11 0 0 1 0 17.6"/>
  </symbol>
  <symbol id="icon-network" viewBox="0 0 256 256">
    <path fill="currentColor" d="M240 120a8 8 0 0 1-8 8h-32v32h8a16 16 0 0 1 16 16v32a16 16 0 0 1-16 16h-32a16 16 0 0 1-16-16v-32a16 16 0 0 1 16-16h8v-32H72v32h8a16 16 0 0 1 16 16v32a16 16 0 0 1-16 16H48a16 16 0 0 1-16-16v-32a16 16 0 0 1 16-16h8v-32H24a8 8 0 0 1 0-16h96V88h-8a16 16 0 0 1-16-16V40a16 16 0 0 1 16-16h32a16 16 0 0 1 16 16v32a16 16 0 0 1-16 16h-8v24h96a8 8 0 0 1 8 8"/>
  </symbol>
</svg>
